<svg width="80" height="80" viewBox="0 0 80 80" fill="none" xmlns="http://www.w3.org/2000/svg">
<g clip-path="url(#clip0_28_3)">
<path d="M6.26329 59.5933C3.36719 63.5922 1.2886 68.1231 0.146624 72.9267C-0.0715151 73.883 -0.0434074 74.879 0.228316 75.8215C0.500039 76.764 1.00649 77.6222 1.70025 78.3156C2.39402 79.0091 3.2524 79.5151 4.19504 79.7864C5.13767 80.0576 6.13373 80.0853 7.08996 79.8667C11.8861 78.7229 16.41 76.6456 20.4033 73.7533C22.281 71.8782 23.337 69.334 23.3389 66.6804C23.3407 64.0268 22.2884 61.4811 20.4133 59.6033C18.5382 57.7256 15.994 56.6696 13.3404 56.6678C10.6867 56.6659 8.14102 57.7183 6.26329 59.5933ZM15.69 69.0233C13.0033 70.7441 10.0851 72.073 7.02329 72.97C7.92156 69.9087 9.25041 66.9906 10.97 64.3033C11.5986 63.6961 12.4406 63.3602 13.3146 63.3678C14.1886 63.3753 15.0247 63.7259 15.6427 64.3439C16.2607 64.962 16.6113 65.798 16.6189 66.672C16.6265 67.546 16.2905 68.388 15.6833 69.0167L15.69 69.0233ZM60 28.3333C60 30.5435 59.122 32.6631 57.5592 34.2259C55.9964 35.7887 53.8768 36.6667 51.6666 36.6667C49.4565 36.6667 47.3369 35.7887 45.7741 34.2259C44.2113 32.6631 43.3333 30.5435 43.3333 28.3333C43.3333 26.1232 44.2113 24.0036 45.7741 22.4408C47.3369 20.878 49.4565 20 51.6666 20C53.8768 20 55.9964 20.878 57.5592 22.4408C59.122 24.0036 60 26.1232 60 28.3333ZM69.9066 -3.27385e-06C61.9741 -0.0471587 54.1374 1.73442 47.005 5.20643C39.8725 8.67843 33.6361 13.7475 28.78 20.02C23.4837 20.2031 18.2892 21.5253 13.55 23.8967C8.05402 26.4274 3.56743 30.7309 0.809958 36.1167C0.162856 37.6192 -0.0998091 39.2593 0.045681 40.8888C0.191171 42.5183 0.740234 44.0859 1.64329 45.45C2.55497 46.8476 3.80091 47.9956 5.26826 48.7901C6.73561 49.5846 8.37799 50.0004 10.0466 50H18.3333C21.4229 50.0149 24.3817 51.2488 26.5664 53.4335C28.7511 55.6182 29.9851 58.5771 30 61.6667V69.9533C29.9988 71.6214 30.4136 73.2633 31.2069 74.7306C32.0002 76.1979 33.147 77.4442 34.5433 78.3567C35.9074 79.2597 37.475 79.8088 39.1045 79.9543C40.734 80.0998 42.3741 79.8371 43.8766 79.19C49.2624 76.4325 53.5659 71.9459 56.0966 66.45C58.468 61.7108 59.7902 56.5162 59.9733 51.22C66.2558 46.3515 71.331 40.0997 74.8044 32.9507C78.2777 25.8017 80.0556 17.9479 80 10C79.996 8.68002 79.7316 7.3738 79.2218 6.15622C78.7121 4.93865 77.967 3.83367 77.0293 2.90465C76.0916 1.97562 74.9797 1.24083 73.7575 0.742383C72.5352 0.24394 71.2266 -0.00834399 69.9066 -3.27385e-06ZM14.4866 43.3333H10.0466C9.48295 43.3377 8.92738 43.199 8.43188 42.9302C7.93637 42.6615 7.51711 42.2715 7.21329 41.7967C6.91483 41.3557 6.7324 40.8465 6.68288 40.3163C6.63335 39.7861 6.71833 39.252 6.92996 38.7633C9.07779 34.8271 12.4521 31.6997 16.54 29.8567C18.6521 28.7976 20.882 27.9921 23.1833 27.4567C19.8701 32.5112 16.9621 37.82 14.4866 43.3333ZM50.1533 63.46C48.3103 67.5468 45.1844 70.9208 41.25 73.07C40.7608 73.2819 40.2261 73.367 39.6953 73.3175C39.1645 73.268 38.6548 73.0854 38.2133 72.7867C37.7385 72.4829 37.3485 72.0636 37.0797 71.5681C36.811 71.0726 36.6723 70.517 36.6766 69.9533V65.5133C42.19 63.0379 47.4988 60.1299 52.5533 56.8167C52.0147 59.1184 51.2058 61.3483 50.1433 63.46H50.1533ZM50.6033 50.06C46.0926 53.1928 41.3309 55.9478 36.3666 58.2967C35.6887 54.6569 33.9248 51.3077 31.3068 48.6898C28.6889 46.0719 25.3397 44.3079 21.7 43.63C24.0506 38.6702 26.8066 33.913 29.94 29.4067C41.1666 13.7467 52.8 7.15666 70 6.66666C70.8681 6.66632 71.7021 7.00467 72.3246 7.60975C72.9471 8.21482 73.309 9.03888 73.3333 9.90666C72.8433 27.2 66.2533 38.8333 50.5933 50.06H50.6033Z" fill="url(#paint0_linear_28_3)"/>
</g>
<defs>
<linearGradient id="paint0_linear_28_3" x1="40.0013" y1="-0.000915527" x2="40.0013" y2="80.0124" gradientUnits="userSpaceOnUse">
<stop stop-color="#FFEC01"/>
<stop offset="1" stop-color="#FFEC01" stop-opacity="0"/>
</linearGradient>
<clipPath id="clip0_28_3">
<rect width="80" height="80" fill="white"/>
</clipPath>
</defs>
</svg>
